<svg id="Layer_1" data-name="Layer 1" xmlns="http://www.w3.org/2000/svg" xmlns:xlink="http://www.w3.org/1999/xlink" viewBox="0 0 284.04 84.96"><defs><style>.cls-1{fill:none;}.cls-2{clip-path:url(#clip-path);}.cls-3{fill:#f5f8fc;}.cls-4{fill:#1c4a6c;}.cls-5{fill:#fff;fill-rule:evenodd;}</style><clipPath id="clip-path" transform="translate(-216.58 -113.98)"><rect class="cls-1" x="28.18" y="86.14" width="472.92" height="162.12"/></clipPath></defs><title>Untitled-1</title><rect class="cls-3" width="230.76" height="84.96" rx="13.18"/><rect class="cls-4" x="219.96" width="62.04" height="84.96" rx="13.98"/><path class="cls-5" d="M500.62,149H500c-2-4.55-12.94-28.42-27.8-30.42l.32,4.39c3.84.48,7.91,3.2,11.82,6.87a35.52,35.52,0,0,0-20-7.27c-.56,0,.79,5.43.79,5.43l2.88.24-.48-3.43c13.18,1.44,28.76,19.4,32.27,24.19h-.08c-3.83-4.31-22.84-24-44.49-19.08-.56.16,2.24,5.11,2.24,5.11l4.15-.08-2.08-3.6c12.62-2.07,33.23,12.54,39.38,17.25-6.71-4.31-26.76-15.17-50.32-12.69,0,0,22.52,57.64,23.16,56.2,5.52-11.81,18.73-6.92,27.44-3.8,0,0-16.49-11.53-26.48-2.42-1.6,1.51-19.25-46.71-19.25-46.71,3.36-3.75,35,3.35,45.61,9.66-.16,0-.24.16-.24.4" transform="translate(-216.58 -113.98)"/><path class="cls-4" d="M239.54,150.21a2.83,2.83,0,0,1,2.08.88,2.94,2.94,0,0,1,.86,2.13v16a22.8,22.8,0,0,1-.64,6.64,20.08,20.08,0,0,1-2.09,5.08,17.13,17.13,0,0,1-3,3.72,19.15,19.15,0,0,1-3.31,2.51,16,16,0,0,1-3.12,1.46,12.63,12.63,0,0,1-2.42.58q-.94.09-1.17-.15c-.16-.17,0-.41.59-.71a17.52,17.52,0,0,0,3.51-2.52,12.88,12.88,0,0,0,2.48-3.16,15.44,15.44,0,0,0,1.51-4,22.57,22.57,0,0,0,.51-5l0-23.46Zm-1.46-13.76a3.51,3.51,0,0,1,1.44.3,3.86,3.86,0,0,1,2,2,3.61,3.61,0,0,1,0,2.88,3.86,3.86,0,0,1-2,2,3.51,3.51,0,0,1-1.44.3,3.38,3.38,0,0,1-1.42-.3,3.79,3.79,0,0,1-1.16-.81,4.05,4.05,0,0,1-.79-1.19,3.61,3.61,0,0,1,0-2.88,4.05,4.05,0,0,1,.79-1.19,3.79,3.79,0,0,1,1.16-.81A3.38,3.38,0,0,1,238.08,136.45Z" transform="translate(-216.58 -113.98)"/><path class="cls-4" d="M253.23,136.82v32.41h3.21v7.08h-7.28a2.84,2.84,0,0,1-1.17-.23,3,3,0,0,1-1.57-1.55,2.69,2.69,0,0,1-.23-1.13V139.76a2.64,2.64,0,0,1,.23-1.12,3,3,0,0,1,.63-.95,2.8,2.8,0,0,1,.94-.64,2.84,2.84,0,0,1,1.17-.23Z" transform="translate(-216.58 -113.98)"/><path class="cls-4" d="M282.94,150.21v19h9.66v-19h4.1a2.8,2.8,0,0,1,1.12.23,3,3,0,0,1,1.59,1.61,2.87,2.87,0,0,1,.23,1.17V173.4a2.69,2.69,0,0,1-.23,1.13,2.82,2.82,0,0,1-.64.92,3,3,0,0,1-.95.63,2.64,2.64,0,0,1-1.12.23H256.21v-7.08h3v-16a3,3,0,0,1,3-3h4.11v19h9.62v-16a2.94,2.94,0,0,1,.86-2.13,2.85,2.85,0,0,1,2.09-.88Z" transform="translate(-216.58 -113.98)"/><path class="cls-4" d="M324.46,150.21v19h9.65v-19h4.11a2.83,2.83,0,0,1,2.08.88,2.94,2.94,0,0,1,.86,2.13V173.4a2.85,2.85,0,0,1-.23,1.13,3,3,0,0,1-.63.92,2.78,2.78,0,0,1-.94.63,2.83,2.83,0,0,1-1.14.23H320.35a2.84,2.84,0,0,1-1.17-.23,2.68,2.68,0,0,1-.94-.63,2.79,2.79,0,0,1-.63-.92,2.69,2.69,0,0,1-.23-1.13V153.22a2.9,2.9,0,0,1,.86-2.13,2.85,2.85,0,0,1,2.11-.88Zm4.83-13.76a3.49,3.49,0,0,1,1.43.3,3.65,3.65,0,0,1,1.18.81,4.05,4.05,0,0,1,.79,1.19,3.61,3.61,0,0,1,0,2.88,4.05,4.05,0,0,1-.79,1.19,3.65,3.65,0,0,1-1.18.81,3.58,3.58,0,0,1-2.87,0,3.65,3.65,0,0,1-1.18-.81,4.05,4.05,0,0,1-.79-1.19,3.61,3.61,0,0,1,0-2.88,4.05,4.05,0,0,1,.79-1.19,3.65,3.65,0,0,1,1.18-.81A3.51,3.51,0,0,1,329.29,136.45Z" transform="translate(-216.58 -113.98)"/><path class="cls-4" d="M365.44,150.21a2.85,2.85,0,0,1,2.09.88,2.94,2.94,0,0,1,.86,2.13v16h3.37v7.08h-4.2a11.65,11.65,0,0,1-2,3.76,12,12,0,0,1-2.76,2.45,15.12,15.12,0,0,1-3.26,1.58c-1.15.41-2.33.79-3.52,1.15a12.87,12.87,0,0,0-1.89.72l-1.91.91-1.71.81a4.37,4.37,0,0,1-1.22.43c-.3,0-.45,0-.46-.23a2.72,2.72,0,0,1,.57-1.19,9.8,9.8,0,0,1,2.42-2.61,22.08,22.08,0,0,1,2.91-1.82l1.84-.94a12,12,0,0,0,1.83-1.16,8.51,8.51,0,0,0,1.62-1.61,7.27,7.27,0,0,0,1.19-2.25H347.58a2.77,2.77,0,0,1-1.14-.23,2.82,2.82,0,0,1-.95-.63,2.93,2.93,0,0,1-.62-.92,2.7,2.7,0,0,1-.24-1.13V153.22a2.94,2.94,0,0,1,.86-2.13,2.85,2.85,0,0,1,2.09-.88Zm-13.76,7.15v11.87h9.66V157.36Z" transform="translate(-216.58 -113.98)"/><path class="cls-4" d="M395.51,150.21a3.1,3.1,0,0,1,1.18.23,3,3,0,0,1,1.6,1.61,2.87,2.87,0,0,1,.23,1.17V173.4a2.69,2.69,0,0,1-.23,1.13,2.82,2.82,0,0,1-.64.92,3.07,3.07,0,0,1-1,.63,2.92,2.92,0,0,1-1.18.23H371.56v-7.08h3.18v-16a2.9,2.9,0,0,1,.86-2.13,2.83,2.83,0,0,1,2.08-.88Zm-13.76,7.15v11.87h9.69V157.36Z" transform="translate(-216.58 -113.98)"/><path class="cls-4" d="M413.9,150.21a2.83,2.83,0,0,1,2.09.88,2.94,2.94,0,0,1,.86,2.13v16a22.44,22.44,0,0,1-.65,6.64,19.71,19.71,0,0,1-2.08,5.08,17.13,17.13,0,0,1-3,3.72,19.53,19.53,0,0,1-3.31,2.51,15.75,15.75,0,0,1-3.13,1.46,12.55,12.55,0,0,1-2.41.58q-.94.09-1.17-.15c-.16-.17,0-.41.59-.71a17.52,17.52,0,0,0,3.51-2.52,12.88,12.88,0,0,0,2.48-3.16,15.07,15.07,0,0,0,1.5-4,22,22,0,0,0,.52-5l0-23.46Zm-1.45-13.76a3.51,3.51,0,0,1,1.44.3,3.86,3.86,0,0,1,2,2,3.61,3.61,0,0,1,0,2.88,3.86,3.86,0,0,1-2,2,3.51,3.51,0,0,1-1.44.3,3.38,3.38,0,0,1-1.42-.3,3.67,3.67,0,0,1-1.16-.81,3.86,3.86,0,0,1-.79-1.19,3.61,3.61,0,0,1,0-2.88,3.86,3.86,0,0,1,.79-1.19,3.67,3.67,0,0,1,1.16-.81A3.38,3.38,0,0,1,412.45,136.45Z" transform="translate(-216.58 -113.98)"/><path class="cls-4" d="M417.51,135.46a5.34,5.34,0,0,1,1.77-4.07q1.8-1.72,6.68-.15c3.26,1,5.76.68,7.53-1.11q-1.26,6.09-7.2,4.19T417.51,135.46Zm10.75,1.36V173.4a2.85,2.85,0,0,1-.23,1.13,3,3,0,0,1-1.57,1.55,2.92,2.92,0,0,1-1.18.23h-4.06V139.76a2.64,2.64,0,0,1,.23-1.12,3,3,0,0,1,.63-.95,2.71,2.71,0,0,1,.94-.64,2.84,2.84,0,0,1,1.17-.23Z" transform="translate(-216.58 -113.98)"/></svg>