<svg id="Layer_1" data-name="Layer 1" xmlns="http://www.w3.org/2000/svg" viewBox="0 0 260.66 73.86"><defs><style>.cls-1{fill:#d87c2b;}.cls-2{fill:#1b4a6c;}.cls-3{fill:#f5f8fc;}.cls-4{fill:#1f295c;fill-rule:evenodd;}</style></defs><title>logo</title><path class="cls-1" d="M208.25,122.21a2.81,2.81,0,0,1,2.08.88,2.9,2.9,0,0,1,.86,2.13v16a22.46,22.46,0,0,1-.64,6.64,19.72,19.72,0,0,1-2.09,5.08,16.84,16.84,0,0,1-3,3.72,19.48,19.48,0,0,1-3.3,2.51,16.28,16.28,0,0,1-3.13,1.46,12.73,12.73,0,0,1-2.41.58c-.63.06-1,0-1.18-.15s0-.41.6-.71a17.73,17.73,0,0,0,3.5-2.52,12.65,12.65,0,0,0,2.48-3.16,14.75,14.75,0,0,0,1.51-4,22.57,22.57,0,0,0,.51-5l0-23.46Zm-1.46-13.76a3.51,3.51,0,0,1,1.44.3,3.8,3.8,0,0,1,1.19.81,3.59,3.59,0,0,1,.81,1.19,3.61,3.61,0,0,1,0,2.88,3.59,3.59,0,0,1-.81,1.19,3.8,3.8,0,0,1-1.19.81,3.51,3.51,0,0,1-1.44.3,3.41,3.41,0,0,1-1.42-.3,3.79,3.79,0,0,1-1.16-.81,4.05,4.05,0,0,1-.79-1.19,3.61,3.61,0,0,1,0-2.88,4.05,4.05,0,0,1,.79-1.19,3.79,3.79,0,0,1,1.16-.81A3.41,3.41,0,0,1,206.79,108.45Z" transform="translate(-195.43 -87.38)"/><path class="cls-1" d="M222,108.82v32.41h3.2v7.08h-7.27a2.92,2.92,0,0,1-1.18-.23,3,3,0,0,1-1.57-1.55,2.85,2.85,0,0,1-.23-1.13V111.76a2.8,2.8,0,0,1,.23-1.12,3,3,0,0,1,.63-1,2.8,2.8,0,0,1,.94-.64,2.92,2.92,0,0,1,1.18-.23Z" transform="translate(-195.43 -87.38)"/><path class="cls-1" d="M251.65,122.21v19h9.66v-19h4.1a2.85,2.85,0,0,1,1.13.23,3.17,3.17,0,0,1,.94.65,3.13,3.13,0,0,1,.65,1,3.05,3.05,0,0,1,.23,1.17V145.4a2.77,2.77,0,0,1-.88,2,3.1,3.1,0,0,1-.94.63,2.69,2.69,0,0,1-1.13.23H224.92v-7.08h3v-16a3,3,0,0,1,3-3H235v19h9.63v-16a2.9,2.9,0,0,1,.86-2.13,2.81,2.81,0,0,1,2.08-.88Z" transform="translate(-195.43 -87.38)"/><path class="cls-2" d="M282.81,122.21v19h9.66v-19h4.11a2.83,2.83,0,0,1,2.08.88,2.94,2.94,0,0,1,.86,2.13V145.4a2.85,2.85,0,0,1-.23,1.13,3.13,3.13,0,0,1-.63.92,2.78,2.78,0,0,1-.94.63,2.83,2.83,0,0,1-1.14.23H278.71a3,3,0,0,1-2.12-.86,2.93,2.93,0,0,1-.62-.92,2.7,2.7,0,0,1-.24-1.13V125.22a2.94,2.94,0,0,1,.86-2.13,2.88,2.88,0,0,1,2.12-.88Zm4.83-13.76a3.51,3.51,0,0,1,1.44.3,3.76,3.76,0,0,1,1.18.81,4.05,4.05,0,0,1,.79,1.19,3.61,3.61,0,0,1,0,2.88,4.05,4.05,0,0,1-.79,1.19,3.76,3.76,0,0,1-1.18.81,3.51,3.51,0,0,1-1.44.3,3.57,3.57,0,0,1-1.44-.3,3.71,3.71,0,0,1-1.17-.81,4.05,4.05,0,0,1-.79-1.19,3.61,3.61,0,0,1,0-2.88,4.05,4.05,0,0,1,.79-1.19,3.71,3.71,0,0,1,1.17-.81A3.57,3.57,0,0,1,287.64,108.45Z" transform="translate(-195.43 -87.38)"/><path class="cls-2" d="M323.8,122.21a2.81,2.81,0,0,1,2.08.88,2.91,2.91,0,0,1,.87,2.13v16h3.37v7.08h-4.2a11.65,11.65,0,0,1-2,3.76,12,12,0,0,1-2.76,2.45,15.12,15.12,0,0,1-3.26,1.58c-1.15.41-2.33.79-3.52,1.15a12.87,12.87,0,0,0-1.89.72l-1.91.91-1.71.81a4.37,4.37,0,0,1-1.22.43c-.3,0-.45,0-.47-.23a2.92,2.92,0,0,1,.58-1.19,9.8,9.8,0,0,1,2.42-2.61,22.08,22.08,0,0,1,2.91-1.82l1.84-.94a12.45,12.45,0,0,0,1.83-1.16,8.51,8.51,0,0,0,1.62-1.61,7.48,7.48,0,0,0,1.19-2.25H305.94a2.77,2.77,0,0,1-1.14-.23,2.82,2.82,0,0,1-.95-.63,3.13,3.13,0,0,1-.63-.92,2.85,2.85,0,0,1-.23-1.13V125.22a2.94,2.94,0,0,1,.86-2.13,2.85,2.85,0,0,1,2.09-.88ZM310,129.36v11.87h9.66V129.36Z" transform="translate(-195.43 -87.38)"/><path class="cls-2" d="M353.87,122.21a3.1,3.1,0,0,1,1.18.23,3.09,3.09,0,0,1,1.6,1.61,3.05,3.05,0,0,1,.23,1.17V145.4a2.85,2.85,0,0,1-.23,1.13,2.7,2.7,0,0,1-.65.92,3,3,0,0,1-2.13.86H329.92v-7.08h3.18v-16a2.9,2.9,0,0,1,.86-2.13,2.81,2.81,0,0,1,2.08-.88Zm-13.76,7.15v11.87h9.69V129.36Z" transform="translate(-195.43 -87.38)"/><path class="cls-2" d="M372.26,122.21a2.83,2.83,0,0,1,2.09.88,2.94,2.94,0,0,1,.86,2.13v16a22.44,22.44,0,0,1-.65,6.64,19.71,19.71,0,0,1-2.08,5.08,17.13,17.13,0,0,1-3,3.72,19.53,19.53,0,0,1-3.31,2.51,15.75,15.75,0,0,1-3.13,1.46,12.55,12.55,0,0,1-2.41.58q-.94.09-1.17-.15c-.16-.17,0-.41.59-.71a17.52,17.52,0,0,0,3.51-2.52,12.88,12.88,0,0,0,2.48-3.16,15.07,15.07,0,0,0,1.5-4,22,22,0,0,0,.52-5l0-23.46Zm-1.45-13.76a3.51,3.51,0,0,1,1.44.3,3.86,3.86,0,0,1,2,2,3.61,3.61,0,0,1,0,2.88,3.86,3.86,0,0,1-2,2,3.51,3.51,0,0,1-1.44.3,3.38,3.38,0,0,1-1.42-.3,3.79,3.79,0,0,1-1.16-.81,3.86,3.86,0,0,1-.79-1.19,3.61,3.61,0,0,1,0-2.88,3.86,3.86,0,0,1,.79-1.19,3.79,3.79,0,0,1,1.16-.81A3.38,3.38,0,0,1,370.81,108.45Z" transform="translate(-195.43 -87.38)"/><path class="cls-2" d="M375.87,107.46a5.34,5.34,0,0,1,1.77-4.07q1.8-1.73,6.68-.15c3.26,1.05,5.76.68,7.53-1.11q-1.26,6.09-7.2,4.19T375.87,107.46Zm10.75,1.36V145.4a2.85,2.85,0,0,1-.23,1.13,3,3,0,0,1-1.57,1.55,2.92,2.92,0,0,1-1.18.23h-4.06V111.76a2.64,2.64,0,0,1,.23-1.12,3,3,0,0,1,.63-1,2.71,2.71,0,0,1,.94-.64,2.84,2.84,0,0,1,1.17-.23Z" transform="translate(-195.43 -87.38)"/><rect class="cls-3" x="195.5" y="10.92" width="65.16" height="62.28" rx="14.03"/><path class="cls-4" d="M456,117.8h-.64c-2-4.55-12.94-28.42-27.8-30.42l.32,4.39c3.84.48,7.91,3.2,11.82,6.87a35.53,35.53,0,0,0-20.05-7.27c-.55,0,.8,5.43.8,5.43l2.88.24-.48-3.43C436,95.05,451.58,113,455.09,117.8H455c-3.83-4.31-22.84-24-44.49-19.08-.56.16,2.24,5.11,2.24,5.11l4.15-.08-2.08-3.59c12.62-2.08,33.23,12.53,39.38,17.24-6.71-4.31-26.76-15.17-50.32-12.69,0,0,22.52,57.64,23.16,56.21,5.51-11.82,18.73-6.92,27.44-3.81,0,0-16.49-11.52-26.48-2.42-1.6,1.52-19.25-46.71-19.25-46.71,3.36-3.75,35,3.36,45.61,9.66-.16,0-.24.16-.24.4" transform="translate(-195.43 -87.38)"/></svg>